<?xml version="1.0" encoding="UTF-8" standalone="no"?>
<svg
   xmlns:dc="http://purl.org/dc/elements/1.1/"
   xmlns:cc="http://creativecommons.org/ns#"
   xmlns:rdf="http://www.w3.org/1999/02/22-rdf-syntax-ns#"
   xmlns:svg="http://www.w3.org/2000/svg"
   xmlns="http://www.w3.org/2000/svg"
   width="8.4666662mm"
   height="8.2587118mm"
   viewBox="0 0 8.4666662 8.2587119"
   version="1.1"
   id="svg696">
  <defs
     id="defs690" />
  <metadata
     id="metadata693">
    <rdf:RDF>
      <cc:Work
         rdf:about="">
        <dc:format>image/svg+xml</dc:format>
        <dc:type
           rdf:resource="http://purl.org/dc/dcmitype/StillImage" />
        <dc:title></dc:title>
      </cc:Work>
    </rdf:RDF>
  </metadata>
  <g
     id="layer1"
     transform="matrix(2.0002567,0,0,2.0002567,-228.62922,-292.242)">
    <path
       id="path315"
       style="fill:#1b1817;fill-opacity:1;fill-rule:evenodd;stroke:none;stroke-width:0.12994"
       d="m 116.4164,146.10225 c -1.16881,0 -2.11646,0.94766 -2.11646,2.11672 0,0.93518 0.60643,1.72846 1.44753,2.00849 0.1059,0.0194 0.14449,-0.046 0.14449,-0.10214 0,-0.0502 -0.002,-0.18334 -0.003,-0.35993 -0.58876,0.12786 -0.71299,-0.28379 -0.71299,-0.28379 -0.0963,-0.24442 -0.23506,-0.30952 -0.23506,-0.30952 -0.19218,-0.13137 0.0146,-0.12876 0.0146,-0.12876 0.21245,0.0151 0.3242,0.21816 0.3242,0.21816 0.18881,0.32342 0.49546,0.23 0.61605,0.17594 0.0192,-0.13682 0.0738,-0.23012 0.13435,-0.28301 -0.46999,-0.0534 -0.96415,-0.23506 -0.96415,-1.04614 0,-0.23104 0.0825,-0.41997 0.21791,-0.56797 -0.0218,-0.0535 -0.0945,-0.26872 0.0207,-0.56017 0,0 0.17776,-0.0569 0.58214,0.217 0.16879,-0.0469 0.34992,-0.0704 0.52989,-0.0712 0.17971,7.4e-4 0.36084,0.0243 0.52989,0.0712 0.40412,-0.27392 0.58148,-0.217 0.58148,-0.217 0.11552,0.29145 0.0429,0.50663 0.021,0.56017 0.13565,0.148 0.21764,0.33693 0.21764,0.56797 0,0.81316 -0.49494,0.99209 -0.96649,1.04445 0.076,0.0654 0.14372,0.19452 0.14372,0.39203 0,0.28288 -0.003,0.51118 -0.003,0.58057 0,0.0567 0.0381,0.12254 0.14553,0.10187 0.84046,-0.28053 1.44636,-1.0733 1.44636,-2.00822 0,-1.16906 -0.94778,-2.11672 -2.11685,-2.11672" />
  </g>
</svg>
