<?xml version="1.0" encoding="UTF-8" standalone="no"?>
<svg
   xmlns:dc="http://purl.org/dc/elements/1.1/"
   xmlns:cc="http://creativecommons.org/ns#"
   xmlns:rdf="http://www.w3.org/1999/02/22-rdf-syntax-ns#"
   xmlns:svg="http://www.w3.org/2000/svg"
   xmlns="http://www.w3.org/2000/svg"
   version="1.1"
   id="Capa_1"
   x="0px"
   y="0px"
   viewBox="0 0 32 24.375"
   xml:space="preserve"
   width="32"
   height="24.375"><metadata
   id="metadata178"><rdf:RDF><cc:Work
       rdf:about=""><dc:format>image/svg+xml</dc:format><dc:type
         rdf:resource="http://purl.org/dc/dcmitype/StillImage" /><dc:title></dc:title></cc:Work></rdf:RDF></metadata><defs
   id="defs176" />
<g
   id="g141"
   transform="matrix(0.0625,0,0,0.0625,0,-3.8125)">
	<g
   id="g139">
		<path
   d="M 467,61 H 45 C 20.218,61 0,81.196 0,106 v 300 c 0,24.72 20.128,45 45,45 h 422 c 24.72,0 45,-20.128 45,-45 V 106 C 512,81.28 491.872,61 467,61 Z M 460.786,91 256.954,294.833 51.359,91 Z M 30,399.788 V 112.069 l 144.479,143.24 z M 51.213,421 195.783,276.43 246.44,326.652 c 5.864,5.814 15.327,5.795 21.167,-0.046 L 317,277.213 460.787,421 Z M 482,399.787 338.213,256 482,112.212 Z"
   id="path137" />
	</g>
</g>
<g
   id="g143"
   transform="matrix(0.0625,0,0,0.0625,0,-3.8125)">
</g>
<g
   id="g145"
   transform="matrix(0.0625,0,0,0.0625,0,-3.8125)">
</g>
<g
   id="g147"
   transform="matrix(0.0625,0,0,0.0625,0,-3.8125)">
</g>
<g
   id="g149"
   transform="matrix(0.0625,0,0,0.0625,0,-3.8125)">
</g>
<g
   id="g151"
   transform="matrix(0.0625,0,0,0.0625,0,-3.8125)">
</g>
<g
   id="g153"
   transform="matrix(0.0625,0,0,0.0625,0,-3.8125)">
</g>
<g
   id="g155"
   transform="matrix(0.0625,0,0,0.0625,0,-3.8125)">
</g>
<g
   id="g157"
   transform="matrix(0.0625,0,0,0.0625,0,-3.8125)">
</g>
<g
   id="g159"
   transform="matrix(0.0625,0,0,0.0625,0,-3.8125)">
</g>
<g
   id="g161"
   transform="matrix(0.0625,0,0,0.0625,0,-3.8125)">
</g>
<g
   id="g163"
   transform="matrix(0.0625,0,0,0.0625,0,-3.8125)">
</g>
<g
   id="g165"
   transform="matrix(0.0625,0,0,0.0625,0,-3.8125)">
</g>
<g
   id="g167"
   transform="matrix(0.0625,0,0,0.0625,0,-3.8125)">
</g>
<g
   id="g169"
   transform="matrix(0.0625,0,0,0.0625,0,-3.8125)">
</g>
<g
   id="g171"
   transform="matrix(0.0625,0,0,0.0625,0,-3.8125)">
</g>
</svg>
